# Blender v2.74 (sub 0) OBJ File: ''
# www.blender.org
mtllib axe.mtl
o Cube.001
v -0.097463 0.041467 -3.455111
v -0.097463 0.095243 -3.877037
v -0.097463 0.893359 -3.848982
v -0.097463 0.887363 -3.681098
v -0.097463 0.889362 -3.551187
v -0.097463 0.883366 -3.463248
v -0.097463 0.789430 -3.197430
v -0.097463 0.751456 -3.065521
v -0.097463 0.713483 -2.921620
v -0.097463 0.689499 -2.787712
v -0.097463 0.653524 -2.649807
v -0.097463 0.571580 -2.140157
v -0.097463 0.549595 -1.984265
v -0.097463 0.523613 -1.758420
v -0.097463 0.505626 -1.536572
v -0.097463 0.481642 -1.134849
v -0.097463 0.471649 -1.032919
v -0.097463 0.461656 -0.711140
v -0.097463 0.457659 -0.423338
v -0.097463 0.463654 -0.125543
v -0.097463 0.473648 0.060330
v -0.097463 0.487638 0.607953
v -0.097463 0.507624 1.017671
v -0.097463 0.541500 1.713318
v -0.097463 0.558768 1.858372
v -0.097463 0.541500 2.707978
v -0.097463 0.512411 3.146771
v -0.097463 0.488943 3.272910
v -0.097463 0.483076 3.366780
v -0.097463 0.456675 3.566256
v -0.097463 0.389206 3.953473
v -0.097463 0.345204 4.337756
v -0.097463 0.330536 4.472695
v -0.097463 0.324669 4.733773
v -0.097463 0.315869 4.909781
v -0.097463 0.289468 4.947916
v -0.097463 0.043057 4.947916
v -0.097463 -0.003878 4.933249
v -0.097463 -0.335359 4.645770
v -0.097463 -0.361761 4.581234
v -0.097463 -0.364694 4.375891
v -0.097463 -0.344160 4.261486
v -0.097463 -0.276690 4.094279
v -0.097463 -0.185753 3.847868
v -0.097463 -0.118283 3.616124
v -0.097463 -0.053747 3.355046
v -0.097463 -0.006812 3.073434
v -0.097463 0.028390 2.797688
v -0.097463 0.028390 2.589412
v -0.097463 0.034257 2.345934
v -0.097463 0.043057 2.105391
v -0.097463 0.028390 1.779776
v -0.097463 0.004922 1.392559
v -0.097463 -0.050813 0.846936
v -0.097463 -0.078217 0.353005
v -0.097463 -0.088356 -0.022107
v -0.097463 -0.094122 -0.447035
v -0.097463 -0.094122 -0.788519
v -0.097463 -0.089100 -1.210352
v -0.097463 -0.069013 -1.868210
v -0.097463 -0.048925 -2.174541
v -0.097463 -0.033860 -2.435675
v -0.097463 -0.033860 -2.601395
v -0.097463 -0.033860 -2.897683
v -0.097463 -0.013773 -3.138736
v 0.103933 0.041467 -3.455111
v 0.103933 -0.013773 -3.138736
v 0.103933 -0.033860 -2.897683
v 0.103933 -0.033860 -2.601395
v 0.103933 -0.033860 -2.435675
v 0.103933 -0.048925 -2.174541
v 0.103933 -0.069013 -1.868210
v 0.103933 -0.089100 -1.210352
v 0.103933 -0.094122 -0.788519
v 0.103933 -0.094122 -0.447035
v 0.103933 -0.088356 -0.022107
v 0.103933 -0.078217 0.353005
v 0.103933 -0.050813 0.846936
v 0.103933 0.004922 1.392559
v 0.103933 0.028390 1.779776
v 0.103933 0.043057 2.105391
v 0.103933 0.034257 2.345934
v 0.103933 0.028390 2.589412
v 0.103933 0.028390 2.797688
v 0.103933 -0.006812 3.073434
v 0.103933 -0.053747 3.355046
v 0.103933 -0.118283 3.616124
v 0.103933 -0.185753 3.847868
v 0.103933 -0.276690 4.094279
v 0.103933 -0.344160 4.261486
v 0.103933 -0.364694 4.375891
v 0.103933 -0.361761 4.581234
v 0.103933 -0.335359 4.645770
v 0.103933 -0.003878 4.933249
v 0.103933 0.043057 4.947916
v 0.103933 0.289468 4.947916
v 0.103933 0.315869 4.909781
v 0.103933 0.324669 4.733773
v 0.103933 0.330536 4.472695
v 0.103933 0.345204 4.337756
v 0.103933 0.389206 3.953473
v 0.103933 0.456675 3.566256
v 0.103933 0.483076 3.366780
v 0.103933 0.488943 3.272910
v 0.103933 0.512411 3.146771
v 0.103933 0.541500 2.707978
v 0.103933 0.558768 1.858372
v 0.103933 0.541500 1.713318
v 0.103933 0.507624 1.017671
v 0.103933 0.487638 0.607953
v 0.103933 0.473648 0.060330
v 0.103933 0.463654 -0.125543
v 0.103933 0.457659 -0.423338
v 0.103933 0.461656 -0.711140
v 0.103933 0.471649 -1.032919
v 0.103933 0.481642 -1.134849
v 0.103933 0.505626 -1.536572
v 0.103933 0.523613 -1.758420
v 0.103933 0.549595 -1.984265
v 0.103933 0.571580 -2.140157
v 0.103933 0.653524 -2.649807
v 0.103933 0.689499 -2.787712
v 0.103933 0.713483 -2.921620
v 0.103933 0.751456 -3.065521
v 0.103933 0.789430 -3.197430
v 0.103933 0.883366 -3.463248
v 0.103933 0.889362 -3.551187
v 0.103933 0.887363 -3.681098
v 0.103933 0.893359 -3.848982
v 0.103933 0.095243 -3.877037
v 0.000000 1.184384 -4.744800
v 0.000000 1.155323 -4.791298
v -0.385309 1.155323 -4.791298
v -0.385309 1.184384 -4.744800
v 0.393430 -0.032766 -3.863975
v 0.384172 -0.199961 -3.845688
v 0.344725 -0.330582 -3.827401
v 0.278107 -0.458591 -3.804659
v 0.187684 -0.599662 -3.769927
v 0.136956 -0.706771 -3.741191
v 0.101999 -0.841548 -3.698554
v 0.060403 -0.951146 -3.658453
v 0.056778 -1.044930 -3.620493
v 0.073040 -1.078424 -3.622726
v 0.073040 -1.152112 -3.772333
v 0.073040 -1.201236 -4.078247
v 0.073040 -1.214634 -4.270280
v 0.073040 -1.216867 -4.607454
v 0.073040 -1.190072 -4.806186
v 0.076123 -1.140947 -4.926764
v 0.092303 -1.105220 -4.964725
v 0.139038 -0.886391 -4.926764
v 0.202011 -0.716687 -4.899970
v 0.246865 -0.613972 -4.877640
v 0.306052 -0.415240 -4.862010
v 0.393430 -0.055736 -4.830498
v 0.393430 0.134400 -4.822892
v 0.393430 0.175952 -4.831984
v 0.393430 0.530501 -4.826172
v 0.393430 0.725213 -4.826172
v 0.393430 0.911206 -4.808735
v 0.393430 1.155323 -4.791298
v 0.393430 1.184384 -4.744800
v 0.393430 1.193102 -4.640179
v 0.393430 1.166947 -3.997921
v 0.393430 1.166947 -3.942704
v 0.393430 1.149510 -3.861332
v 0.393430 1.105918 -3.846801
v 0.393430 0.931549 -3.861332
v 0.393430 0.876333 -3.872956
v 0.393430 0.818210 -3.875863
v 0.393430 0.574094 -3.875863
v 0.393430 0.095243 -3.877037
v 0.000000 -1.152112 -3.772333
v 0.000000 -1.201236 -4.078247
v 0.000000 0.931549 -3.861332
v 0.000000 0.876333 -3.872956
v 0.000000 -0.032766 -3.863975
v 0.000000 -0.199961 -3.845688
v 0.000000 -0.886391 -4.926764
v 0.000000 -0.716687 -4.899970
v 0.000000 -0.951146 -3.658453
v 0.000000 -1.044930 -3.620493
v 0.000000 0.530501 -4.826172
v 0.000000 0.725213 -4.826172
v 0.000000 1.166947 -3.942704
v 0.000000 1.149510 -3.861332
v 0.000000 -1.190072 -4.806186
v 0.000000 -1.140947 -4.926764
v 0.000000 -0.599662 -3.769927
v 0.000000 -0.706771 -3.741191
v 0.000000 -0.055736 -4.830498
v 0.000000 0.134400 -4.822892
v 0.000000 -1.214634 -4.270280
v 0.000000 1.193102 -4.640179
v 0.000000 0.818210 -3.875863
v 0.000000 -0.613972 -4.877640
v 0.000000 -0.330582 -3.827401
v 0.000000 -1.078424 -3.622726
v 0.000000 0.911206 -4.808735
v 0.000000 -1.105220 -4.964725
v 0.000000 1.105918 -3.846801
v 0.000000 -0.841548 -3.698554
v 0.000000 0.175952 -4.831984
v 0.000000 1.166947 -3.997921
v 0.000000 -1.216867 -4.607454
v 0.000000 0.574094 -3.875863
v 0.000000 -0.458591 -3.803889
v 0.000000 -0.415240 -4.862010
v -0.385309 -0.032766 -3.863975
v -0.385309 0.095243 -3.877037
v -0.385309 0.574094 -3.875863
v -0.385309 0.818210 -3.875863
v -0.385309 0.876333 -3.872956
v -0.385309 0.931549 -3.861332
v -0.385309 1.105918 -3.846801
v -0.385309 1.149510 -3.861332
v -0.385309 1.166947 -3.942704
v -0.385309 1.166947 -3.997921
v -0.385309 1.193102 -4.640179
v -0.385309 0.911206 -4.808735
v -0.385309 0.725213 -4.826172
v -0.385309 0.530501 -4.826172
v -0.385309 0.175952 -4.831984
v -0.385309 0.134400 -4.822892
v -0.385309 -0.055736 -4.830498
v -0.293777 -0.415240 -4.862010
v -0.243919 -0.613972 -4.877640
v -0.191740 -0.716687 -4.899970
v -0.128793 -0.886391 -4.926764
v -0.072208 -1.105220 -4.964725
v -0.075321 -1.140947 -4.926764
v -0.075321 -1.190072 -4.806186
v -0.075321 -1.216867 -4.607454
v -0.075321 -1.214634 -4.270280
v -0.075321 -1.201236 -4.078247
v -0.075321 -1.152112 -3.772333
v -0.075321 -1.078424 -3.622726
v -0.063913 -1.044930 -3.620493
v -0.069027 -0.951146 -3.658453
v -0.090024 -0.841548 -3.698554
v -0.136235 -0.706771 -3.741191
v -0.186619 -0.599662 -3.769927
v -0.274854 -0.458591 -3.803889
v -0.335267 -0.330582 -3.827401
v -0.385309 -0.199961 -3.845688
vn 1.000000 0.000000 0.000000
vn -1.000000 -0.000000 0.000000
vn 0.000000 -0.997800 -0.066100
vn 0.000000 1.000000 0.000000
vn 0.000000 -0.987300 -0.158700
vn 0.000000 -0.999700 -0.022500
vn 0.000000 0.999600 -0.027000
vn 0.000000 -0.999900 -0.013900
vn 0.000000 -0.999400 -0.035700
vn 0.000000 0.999900 -0.014300
vn 0.000000 -0.999800 -0.020300
vn 0.000000 -0.967600 -0.252400
vn 0.000000 0.991900 0.126600
vn 0.000000 -0.994100 -0.108100
vn 0.000000 0.998500 -0.055400
vn 0.000000 -0.999500 -0.031000
vn 0.000000 -0.035100 0.999400
vn 0.000000 0.925500 -0.378600
vn 0.000000 0.998300 0.057600
vn 0.000000 -0.993000 0.118200
vn 0.000000 -0.984300 -0.176300
vn 0.000000 0.986400 0.164400
vn 0.000000 -0.993500 -0.113800
vn 0.000000 -0.995200 -0.097600
vn 0.000000 0.994800 -0.101600
vn 0.000000 0.655200 -0.755500
vn 0.000000 0.997900 0.065400
vn 0.000000 -0.998800 0.048700
vn 0.000000 -0.998800 0.048600
vn 0.000000 -0.966900 -0.255100
vn 0.000000 0.970800 0.240000
vn 0.000000 -0.985200 -0.171700
vn 0.000000 0.998200 -0.060500
vn 0.000000 -0.998200 -0.059600
vn 0.000000 0.298300 -0.954500
vn 0.000000 0.999500 0.030500
vn 0.000000 -0.961000 -0.276600
vn 0.000000 0.960100 0.279500
vn 0.000000 0.992000 0.126400
vn 0.000000 -0.991400 -0.131200
vn 0.000000 -0.996700 -0.080800
vn 0.000000 0.999000 -0.045000
vn 0.000000 0.000000 -1.000000
vn 0.000000 0.999900 0.011900
vn 0.000000 -0.999700 0.025500
vn 0.000000 -0.942900 -0.333200
vn 0.000000 0.938200 0.346200
vn 0.000000 0.985100 0.172000
vn 0.000000 -0.998100 -0.062400
vn 0.000000 -0.993400 -0.114300
vn 0.000000 0.999300 0.036600
vn 0.000000 -0.822200 -0.569200
vn 0.000000 -0.998600 0.053700
vn 0.000000 -0.997700 -0.068000
vn 0.000000 0.927300 0.374200
vn 0.000000 0.996500 0.083000
vn 0.000000 -0.983100 -0.182900
vn 0.000000 -0.990200 -0.139600
vn 0.000000 0.999700 0.024100
vn 0.000000 -0.998800 -0.049900
vn 0.000000 0.999900 -0.013600
vn 0.000000 -0.999800 0.020100
vn 0.000000 -0.999900 0.015400
vn 0.000000 0.984300 0.176700
vn 0.000000 0.848000 -0.530000
vn 0.973200 -0.228500 0.025600
vn 0.968200 -0.249600 -0.017400
vn 0.930500 -0.351300 -0.104000
vn 0.000000 -0.987400 0.158500
vn 0.000000 -0.206000 0.978600
vn 0.000000 0.108700 0.994100
vn 0.000000 0.156000 -0.987800
vn 0.000000 0.375200 0.926900
vn 0.000000 0.977800 0.209500
vn 0.000000 -0.926100 -0.377300
vn 0.000000 0.259100 0.965800
vn 0.000000 0.040000 -0.999200
vn 0.000000 -0.997600 0.069600
vn 0.000000 0.996500 -0.083000
vn 0.000000 -0.050000 0.998800
vn 0.000000 0.212400 -0.977200
vn 0.000000 0.138600 0.990300
vn 0.000000 -0.066500 0.997800
vn 0.000000 0.093300 -0.995600
vn 0.000000 -0.728200 -0.685400
vn 0.000000 0.316200 0.948700
vn 0.000000 0.301600 0.953400
vn 0.000000 -0.213700 -0.976900
vn 0.000000 0.999200 0.040700
vn 0.000000 -1.000000 0.006600
vn 0.000000 0.000000 1.000000
vn 0.002000 0.179100 0.983800
vn 0.002700 0.180700 0.983500
vn 0.000600 0.176100 0.984400
vn 0.000000 0.078400 -0.996900
vn 0.000000 -0.897100 0.441900
vn 0.000000 0.071200 -0.997500
vn 0.000000 -0.083000 0.996500
vn 0.000000 0.170900 -0.985300
vn 0.000000 0.101500 0.994800
vn 0.000000 0.343600 0.939100
vn 0.000000 0.016400 -0.999900
vn 0.000000 -0.991000 -0.133600
vn 0.000000 -0.002500 1.000000
vn 0.000000 0.087300 -0.996200
vn 0.001100 0.235500 0.971900
vn 0.000000 0.234100 0.972200
vn 0.001900 0.236400 0.971700
vn -0.980000 -0.198800 -0.008000
vn -0.993000 -0.116500 -0.017100
vn -0.966400 -0.257000 -0.011000
vn 0.000000 -0.987400 0.158600
vn 0.000000 0.180700 0.983500
vn 0.996400 -0.058800 0.060300
vn 0.987600 0.156700 -0.004800
vn 0.872700 0.438100 -0.215800
vn 0.933400 -0.130600 0.334100
vn 0.968300 -0.187200 0.165100
vn 0.982500 -0.183000 0.036000
vn 0.915500 -0.300600 0.267400
vn 0.916100 -0.384000 0.115200
vn 0.993300 -0.114700 -0.011900
vn 0.999600 -0.029000 0.000700
vn 0.950000 -0.311900 -0.011400
vn 0.872900 -0.487000 0.029500
vn 0.982300 -0.187300 -0.008000
vn 0.961900 -0.273500 -0.003500
vn 0.948800 -0.298500 -0.103200
vn 0.970800 -0.239900 0.001200
vn 0.954100 -0.235800 0.184700
vn 0.972700 -0.228200 -0.042200
vn 0.924800 -0.380400 -0.003400
vn 0.000000 0.174900 0.984600
vn 0.002700 0.237400 0.971400
vn -0.999100 -0.027800 0.033300
vn -0.995000 0.099800 0.004300
vn -0.978600 -0.077500 0.190900
vn -0.965300 -0.191900 0.177100
vn -0.930800 0.327800 -0.161500
vn -0.984000 -0.173700 0.040700
vn -0.905000 -0.310100 0.291300
vn -0.918900 -0.377300 0.114900
vn -0.951600 -0.305800 -0.031300
vn -0.884500 -0.465800 0.026000
vn -0.918900 -0.394400 -0.004600
vn -0.915400 -0.374600 -0.147600
vn -0.975100 -0.220800 0.022500
vn -0.947500 -0.282600 -0.149800
vn -0.969100 -0.203600 -0.139000
vn -0.981100 -0.189100 -0.041300
vn -0.974300 -0.224300 -0.018900
vn -0.943900 -0.198300 -0.264000
usemtl Material.001
s 1
f 26//1 27//1 48//1
f 74//2 115//2 73//2
f 26//3 106//3 105//3
f 63//4 69//4 68//4
f 11//5 121//5 120//5
f 48//4 84//4 83//4
f 33//6 99//6 98//6
f 55//7 77//7 76//7
f 18//8 114//8 113//8
f 3//9 129//9 128//9
f 40//10 92//10 91//10
f 62//4 70//4 69//4
f 25//11 107//11 106//11
f 10//12 122//12 121//12
f 47//13 85//13 84//13
f 32//14 100//14 99//14
f 54//15 78//15 77//15
f 17//16 115//16 114//16
f 2//17 130//17 129//17
f 39//18 93//18 92//18
f 61//19 71//19 70//19
f 24//20 108//20 107//20
f 9//21 123//21 122//21
f 46//22 86//22 85//22
f 31//23 101//23 100//23
f 16//24 116//24 115//24
f 53//25 79//25 78//25
f 38//26 94//26 93//26
f 60//27 72//27 71//27
f 23//28 109//28 108//29
f 8//30 124//30 123//30
f 45//31 87//31 86//31
f 30//32 102//32 101//32
f 52//33 80//33 79//33
f 15//34 117//34 116//34
f 37//35 95//35 94//35
f 59//36 73//36 72//36
f 22//28 110//28 109//28
f 7//37 125//37 124//37
f 44//38 88//38 87//38
f 1//39 66//39 130//39
f 29//40 103//40 102//40
f 14//41 118//41 117//41
f 51//42 81//42 80//42
f 36//43 96//43 95//43
f 58//44 74//44 73//44
f 21//45 111//45 110//45
f 6//46 126//46 125//46
f 43//47 89//47 88//47
f 65//48 67//48 66//48
f 28//49 104//49 103//49
f 13//50 119//50 118//50
f 50//51 82//51 81//51
f 35//52 97//52 96//52
f 57//4 75//4 74//4
f 20//53 112//53 111//53
f 5//54 127//54 126//54
f 42//55 90//55 89//55
f 64//56 68//56 67//56
f 27//57 105//57 104//57
f 12//58 120//58 119//58
f 49//59 83//59 82//59
f 34//60 98//60 97//60
f 56//61 76//61 75//61
f 19//62 113//62 112//62
f 4//63 128//63 127//63
f 41//64 91//64 90//64
f 8//1 65//1 1//1
f 13//1 60//1 61//1
f 9//1 64//1 65//1
f 12//1 61//1 62//1
f 11//1 63//1 64//1
f 4//1 2//1 3//1
f 1//1 5//1 6//1
f 1//1 2//1 4//1
f 11//1 62//1 63//1
f 17//1 58//1 59//1
f 20//1 56//1 57//1
f 56//1 21//1 55//1
f 25//1 50//1 51//1
f 20//1 21//1 56//1
f 26//1 49//1 50//1
f 55//1 22//1 54//1
f 32//1 42//1 43//1
f 18//1 57//1 58//1
f 31//1 43//1 44//1
f 54//1 22//1 23//1
f 33//1 41//1 42//1
f 13//1 14//1 60//1
f 31//1 44//1 45//1
f 1//1 4//1 5//1
f 33//1 40//1 41//1
f 1//1 6//1 7//1
f 30//1 45//1 46//1
f 1//1 7//1 8//1
f 33//1 39//1 40//1
f 65//1 8//1 9//1
f 28//1 46//1 47//1
f 64//1 9//1 10//1
f 27//1 47//1 48//1
f 64//1 10//1 11//1
f 26//1 48//1 49//1
f 62//1 11//1 12//1
f 33//1 38//1 39//1
f 61//1 12//1 13//1
f 33//1 34//1 38//1
f 14//1 15//1 60//1
f 59//1 16//1 17//1
f 15//1 59//1 60//1
f 55//1 21//1 22//1
f 16//1 59//1 15//1
f 25//1 52//1 24//1
f 18//1 58//1 17//1
f 50//1 25//1 26//1
f 19//1 57//1 18//1
f 51//1 52//1 25//1
f 20//1 57//1 19//1
f 24//1 52//1 53//1
f 54//1 23//1 53//1
f 35//1 36//1 37//1
f 37//1 34//1 35//1
f 45//1 30//1 31//1
f 38//1 34//1 37//1
f 46//1 29//1 30//1
f 32//1 33//1 42//1
f 47//1 27//1 28//1
f 31//1 32//1 43//1
f 46//1 28//1 29//1
f 23//1 24//1 53//1
f 128//2 130//2 66//2
f 66//2 127//2 128//2
f 128//2 129//2 130//2
f 121//2 122//2 68//2
f 121//2 69//2 70//2
f 117//2 72//2 73//2
f 121//2 68//2 69//2
f 117//2 118//2 72//2
f 112//2 113//2 75//2
f 111//2 76//2 77//2
f 109//2 78//2 79//2
f 106//2 82//2 83//2
f 110//2 77//2 78//2
f 106//2 83//2 84//2
f 108//2 79//2 80//2
f 99//2 90//2 91//2
f 112//2 75//2 76//2
f 99//2 100//2 90//2
f 107//2 80//2 81//2
f 99//2 91//2 92//2
f 75//2 113//2 114//2
f 90//2 100//2 89//2
f 74//2 75//2 114//2
f 99//2 92//2 93//2
f 126//2 127//2 66//2
f 94//2 99//2 93//2
f 125//2 126//2 66//2
f 89//2 100//2 101//2
f 124//2 125//2 66//2
f 88//2 89//2 101//2
f 67//2 124//2 66//2
f 87//2 88//2 101//2
f 67//2 123//2 124//2
f 102//2 87//2 101//2
f 67//2 68//2 123//2
f 98//2 94//2 95//2
f 123//2 68//2 122//2
f 97//2 95//2 96//2
f 70//2 120//2 121//2
f 102//2 86//2 87//2
f 95//2 97//2 98//2
f 104//2 85//2 86//2
f 94//2 98//2 99//2
f 105//2 85//2 104//2
f 103//2 86//2 102//2
f 84//2 105//2 106//2
f 104//2 86//2 103//2
f 107//2 82//2 106//2
f 85//2 105//2 84//2
f 70//2 71//2 120//2
f 73//2 116//2 117//2
f 120//2 71//2 119//2
f 107//2 81//2 82//2
f 80//2 107//2 108//2
f 78//2 109//2 110//2
f 76//2 111//2 112//2
f 119//2 71//2 72//2
f 79//2 108//2 109//2
f 118//2 119//2 72//2
f 77//2 110//2 111//2
f 116//2 73//2 115//2
f 74//2 114//2 115//2
f 27//3 26//3 105//3
f 64//4 63//4 68//4
f 12//5 11//5 120//5
f 49//4 48//4 83//4
f 34//6 33//6 98//6
f 56//7 55//7 76//7
f 19//8 18//8 113//8
f 4//9 3//9 128//9
f 41//10 40//10 91//10
f 63//4 62//4 69//4
f 26//11 25//11 106//11
f 11//12 10//12 121//12
f 48//13 47//13 84//13
f 33//14 32//14 99//14
f 55//15 54//15 77//15
f 18//16 17//16 114//16
f 3//17 2//17 129//17
f 40//18 39//18 92//18
f 62//19 61//19 70//19
f 25//20 24//20 107//20
f 10//21 9//21 122//21
f 47//22 46//22 85//22
f 32//23 31//23 100//23
f 17//24 16//24 115//24
f 54//25 53//25 78//25
f 39//26 38//26 93//26
f 61//27 60//27 71//27
f 24//29 23//28 108//29
f 9//30 8//30 123//30
f 46//31 45//31 86//31
f 31//32 30//32 101//32
f 53//33 52//33 79//33
f 16//34 15//34 116//34
f 38//35 37//35 94//35
f 60//36 59//36 72//36
f 23//28 22//28 109//28
f 8//37 7//37 124//37
f 45//38 44//38 87//38
f 2//39 1//39 130//39
f 30//40 29//40 102//40
f 15//41 14//41 117//41
f 52//42 51//42 80//42
f 37//43 36//43 95//43
f 59//44 58//44 73//44
f 22//45 21//45 110//45
f 7//46 6//46 125//46
f 44//47 43//47 88//47
f 1//48 65//48 66//48
f 29//49 28//49 103//49
f 14//50 13//50 118//50
f 51//51 50//51 81//51
f 36//52 35//52 96//52
f 58//4 57//4 74//4
f 21//53 20//53 111//53
f 6//54 5//54 126//54
f 43//55 42//55 89//55
f 65//56 64//56 67//56
f 28//57 27//57 104//57
f 13//58 12//58 119//58
f 50//59 49//59 82//59
f 35//60 34//60 97//60
f 57//61 56//61 75//61
f 20//62 19//62 112//62
f 5//63 4//63 127//63
f 42//64 41//64 90//64
usemtl Material.002
f 132//65 133//65 134//65
f 147//66 148//67 153//68
f 131//65 163//65 162//65
f 175//69 146//69 145//69
f 177//70 170//70 169//70
f 178//71 179//71 136//71
f 181//72 153//72 152//72
f 182//73 183//73 143//73
f 185//43 160//43 159//43
f 187//74 167//74 166//74
f 189//75 150//75 149//75
f 190//76 191//76 140//76
f 193//77 157//77 156//77
f 194//78 147//78 146//78
f 195//79 164//79 163//79
f 196//80 171//80 170//80
f 197//81 154//81 153//81
f 179//82 198//82 137//82
f 199//83 144//83 143//83
f 200//84 161//84 160//84
f 201//85 151//85 150//85
f 202//86 168//86 167//86
f 191//87 203//87 141//87
f 204//88 158//88 157//88
f 205//89 165//89 164//89
f 206//90 148//90 147//90
f 207//91 172//91 171//91
f 198//92 208//93 138//94
f 209//95 155//95 154//95
f 174//96 145//96 144//96
f 132//97 162//97 161//97
f 176//98 169//98 168//98
f 180//99 152//99 151//99
f 178//100 135//100 173//100
f 203//101 182//101 142//101
f 184//102 159//102 158//102
f 188//103 149//103 148//103
f 186//4 166//4 165//4
f 207//104 2//104 173//104
f 192//105 156//105 155//105
f 208//106 190//107 139//108
f 246//109 226//110 227//111
f 174//69 237//69 236//112
f 176//70 215//70 214//70
f 178//71 210//71 246//71
f 181//72 180//72 230//72
f 182//73 240//73 239//73
f 184//43 223//43 222//43
f 186//74 218//74 217//74
f 188//75 233//75 232//75
f 190//76 243//76 242//76
f 192//77 226//77 225//77
f 175//78 236//78 235//78
f 131//79 134//79 220//79
f 177//80 214//80 213//80
f 197//81 181//81 229//81
f 179//82 246//82 245//82
f 199//83 183//83 239//83
f 185//84 222//84 221//84
f 189//85 232//85 231//85
f 187//86 217//86 216//86
f 191//87 242//87 241//87
f 193//88 225//88 224//88
f 195//89 220//89 219//89
f 194//90 235//90 234//90
f 196//91 213//91 212//91
f 198//113 245//113 244//113
f 209//95 197//95 228//95
f 199//96 238//96 237//96
f 200//97 221//97 133//97
f 202//98 216//98 215//98
f 180//99 201//99 231//99
f 2//100 211//100 210//100
f 203//101 241//101 240//101
f 204//102 224//102 223//102
f 206//103 234//103 233//103
f 205//4 219//4 218//4
f 2//104 207//104 212//104
f 192//105 209//105 227//105
f 208//107 244//107 243//107
f 131//65 132//65 134//65
f 158//1 172//1 173//1
f 145//114 143//115 144//116
f 165//1 169//1 170//1
f 145//114 142//117 143//115
f 166//1 168//1 169//1
f 141//118 142//117 145//114
f 165//1 170//1 171//1
f 146//119 141//118 145//114
f 166//1 167//1 168//1
f 146//119 140//120 141//118
f 159//1 160//1 172//1
f 146//119 139//121 140//120
f 165//1 166//1 169//1
f 146//119 147//66 139//121
f 156//122 173//1 135//123
f 139//121 154//124 138//125
f 156//122 135//123 136//126
f 171//1 164//1 165//1
f 164//1 162//1 163//1
f 171//1 160//1 161//1
f 172//1 158//1 159//1
f 136//126 155//127 156//122
f 164//1 171//1 161//1
f 147//66 153//68 154//124
f 164//1 161//1 162//1
f 148//67 152//128 153//68
f 160//1 171//1 172//1
f 150//129 151//130 152//128
f 173//1 157//1 158//1
f 149//131 150//129 152//128
f 173//1 156//122 157//1
f 138//125 154//124 155//127
f 154//124 139//121 147//66
f 152//128 148//67 149//131
f 136//126 137//132 155//127
f 138//125 155//127 137//132
f 132//65 131//65 162//65
f 174//69 175//69 145//69
f 176//70 177//70 169//70
f 135//71 178//71 136//71
f 180//72 181//72 152//72
f 142//73 182//73 143//73
f 184//43 185//43 159//43
f 186//74 187//74 166//74
f 188//75 189//75 149//75
f 139//76 190//76 140//76
f 192//77 193//77 156//77
f 175//78 194//78 146//78
f 131//79 195//79 163//79
f 177//80 196//80 170//80
f 181//81 197//81 153//81
f 136//82 179//82 137//82
f 183//83 199//83 143//83
f 185//84 200//84 160//84
f 189//85 201//85 150//85
f 187//86 202//86 167//86
f 140//87 191//87 141//87
f 193//88 204//88 157//88
f 195//89 205//89 164//89
f 194//90 206//90 147//90
f 196//91 207//91 171//91
f 137//133 198//92 138//94
f 197//95 209//95 154//95
f 199//96 174//96 144//96
f 200//97 132//97 161//97
f 202//98 176//98 168//98
f 201//99 180//99 151//99
f 2//100 178//100 173//100
f 141//101 203//101 142//101
f 204//102 184//102 158//102
f 206//103 188//103 148//103
f 205//4 186//4 165//4
f 172//104 207//104 173//104
f 209//105 192//105 155//105
f 138//134 208//106 139//108
f 237//135 239//136 240//137
f 221//2 222//2 213//2
f 237//135 240//137 241//138
f 218//2 215//2 216//2
f 237//135 238//139 239//136
f 218//2 216//2 217//2
f 236//140 241//138 242//141
f 218//2 219//2 215//2
f 236//140 242//141 243//142
f 219//2 214//2 215//2
f 228//143 243//142 244//144
f 219//2 213//2 214//2
f 227//111 244//144 245//145
f 220//2 213//2 219//2
f 227//111 245//145 246//109
f 213//2 222//2 212//2
f 226//110 246//109 210//2
f 241//138 236//140 237//135
f 228//143 229//146 235//147
f 230//148 232//149 233//150
f 234//151 229//146 230//148
f 230//148 231//152 232//149
f 243//142 235//147 236//140
f 220//2 221//2 213//2
f 133//2 220//2 134//2
f 220//2 133//2 221//2
f 212//2 222//2 223//2
f 211//2 224//2 225//2
f 244//144 227//111 228//143
f 226//110 211//2 225//2
f 234//151 230//148 233//150
f 224//2 211//2 212//2
f 234//151 235//147 229//146
f 210//2 211//2 226//110
f 212//2 223//2 224//2
f 243//142 228//143 235//147
f 175//69 174//69 236//112
f 177//70 176//70 214//70
f 179//71 178//71 246//71
f 229//72 181//72 230//72
f 183//73 182//73 239//73
f 185//43 184//43 222//43
f 187//74 186//74 217//74
f 189//75 188//75 232//75
f 191//76 190//76 242//76
f 193//77 192//77 225//77
f 194//78 175//78 235//78
f 195//79 131//79 220//79
f 196//80 177//80 213//80
f 228//81 197//81 229//81
f 198//82 179//82 245//82
f 238//83 199//83 239//83
f 200//84 185//84 221//84
f 201//85 189//85 231//85
f 202//86 187//86 216//86
f 203//87 191//87 241//87
f 204//88 193//88 224//88
f 205//89 195//89 219//89
f 206//90 194//90 234//90
f 207//91 196//91 212//91
f 208//113 198//113 244//113
f 227//95 209//95 228//95
f 174//96 199//96 237//96
f 132//97 200//97 133//97
f 176//98 202//98 215//98
f 230//99 180//99 231//99
f 178//100 2//100 210//100
f 182//101 203//101 240//101
f 184//102 204//102 223//102
f 188//103 206//103 233//103
f 186//4 205//4 218//4
f 211//104 2//104 212//104
f 226//105 192//105 227//105
f 190//107 208//107 243//107
